<svg width="27" height="32" viewBox="0 0 27 32" fill="none" xmlns="http://www.w3.org/2000/svg">
<path d="M10.53 23.7653C11.1434 21.2712 10.8664 20.7132 9.86386 18.7559C9.31178 17.6782 8.87036 16.5916 8.15584 15.5898C6.8781 13.7983 5.76701 11.1778 7.08571 8.93363C9.6805 4.51786 18.0582 6.67645 17.356 11.3943C17.0887 13.1899 16.1121 14.7852 15.6194 16.561C15.4218 17.2732 15.4144 17.9746 15.0856 18.6893C14.7702 19.3748 14.379 20.2274 14.5984 20.8699C14.7837 21.4126 15.2121 22.052 14.9298 22.6841C14.5398 23.5573 14.6425 23.1417 13.7301 23.4533C13.1029 23.6675 12.0314 23.5545 11.4067 23.3791C10.9607 23.2539 11.0125 24.0389 10.7761 23.3466C10.5731 22.7523 10.9643 23.1707 10.5097 23.326" stroke="#00ADB5" stroke-linecap="round" stroke-linejoin="round"/>
<path d="M14.0814 24.6719C12.7308 24.7775 9.05035 25.2402 10.1465 25.8484C11.469 26.5824 11.6978 25.91 12.9526 25.733C13.5943 25.6424 14.7278 27.0412 14.0722 27.3028C13.136 27.6764 12.1276 26.7894 11.1573 27.1208C10.2742 27.4224 10.6789 28.4006 11.3295 28.5741C12.1886 28.8032 12.821 28.0256 13.5406 28.5937C14.6777 29.4914 12.582 29.9978 11.913 29.9242C11.239 29.85 10.5409 29.6131 10.0295 29.5139" stroke="#00ADB5" stroke-linecap="round" stroke-linejoin="round"/>
<path d="M10.4192 23.4406C10.4647 23.5222 10.6817 24.1039 10.9543 24.0108C11.1011 23.9607 11.1424 23.861 11.2984 23.8793C11.4818 23.9008 11.6903 24.0278 11.8766 24.08C12.0408 24.1261 12.4315 23.9801 12.5462 24.0683C12.7336 24.2124 13.0198 24.2286 13.262 24.1709C13.576 24.0961 13.7334 24.189 14.0359 24.0166C14.1284 23.9639 14.1198 23.9058 14.2124 23.8742C14.3555 23.8253 14.4374 23.8631 14.5102 23.7229C14.5907 23.5678 14.7678 23.4475 14.7662 23.2544C14.764 22.9917 15.0088 22.7695 14.6335 23.0611" stroke="#00ADB5" stroke-linecap="round" stroke-linejoin="round"/>
<path d="M12.6446 11.6368C12.126 11.8166 11.7065 11.992 11.6913 12.5263C11.6809 12.8898 11.787 13.2074 11.9014 13.5422C12.0125 13.8677 12.3342 14.0501 12.4388 14.3564C12.5771 14.7614 12.178 14.8237 11.9014 15.0559C11.6402 15.2752 11.4554 15.447 11.3813 15.7634C11.3078 16.0767 11.6004 16.5342 11.718 16.8073C11.8191 17.0424 12.1279 17.51 12.0035 17.7804C11.9358 17.9274 11.4179 18.2955 11.7119 17.9234" stroke="#00ADB5" stroke-linecap="round" stroke-linejoin="round"/>
<path d="M18.5722 14.6602C19.0693 14.7559 19.5612 14.8103 20.0775 14.8015C20.2939 14.7978 20.5889 14.8224 20.4557 14.5747" stroke="#00ADB5" stroke-linecap="round" stroke-linejoin="round"/>
<path d="M18.9048 10.698C19.694 10.5989 20.4849 10.521 21.2734 10.4407C21.4046 10.4273 21.0354 10.2582 21.0223 10.2537" stroke="#00ADB5" stroke-linecap="round" stroke-linejoin="round"/>
<path d="M17.9906 7.35684C18.7214 7.0007 19.442 6.62235 20.1617 6.24665C20.493 6.07369 20.6545 6.06257 20.3698 5.87502" stroke="#00ADB5" stroke-linecap="round" stroke-linejoin="round"/>
<path d="M12.6826 5.29315C13.2545 4.996 13.7473 4.72961 14.2123 4.30902C14.4299 4.11214 14.6305 3.89635 14.8672 3.7166C15.1485 3.50299 15.166 3.53282 14.751 3.47121" stroke="#00ADB5" stroke-linecap="round" stroke-linejoin="round"/>
<path d="M6.66018 4.83992C6.75319 5.40006 6.89071 5.7076 7.30398 6.10278C7.52678 6.31582 7.7522 6.60427 7.91418 6.86119C7.96996 6.94966 8.00145 7.00011 8.10176 7.04657C8.13931 7.06396 7.92558 6.77777 7.8907 6.73441" stroke="#00ADB5" stroke-linecap="round" stroke-linejoin="round"/>
<path d="M2.94334 8.47978C3.32459 8.96598 3.78013 9.40168 4.13379 9.89836C4.31272 10.1496 4.2664 10.1845 4.02886 9.94969" stroke="#00ADB5" stroke-linecap="round" stroke-linejoin="round"/>
<path d="M2.44151 13.0854C3.26883 13.3513 4.01796 13.7762 4.73627 14.2043C4.82629 14.258 4.9097 14.2595 5.00186 14.2964C5.21123 14.3804 4.82448 14.1613 4.77538 14.129" stroke="#00ADB5" stroke-linecap="round" stroke-linejoin="round"/>
</svg>
